<?xml version="1.0" standalone="no"?>
<!DOCTYPE svg PUBLIC "-//W3C//DTD SVG 20010904//EN"
 "http://www.w3.org/TR/2001/REC-SVG-20010904/DTD/svg10.dtd">
<svg version="1.0" xmlns="http://www.w3.org/2000/svg"
 width="1024.000000pt" height="1024.000000pt" viewBox="0 0 1024.000000 1024.000000"
 preserveAspectRatio="xMidYMid meet">
<metadata>
Created by potrace 1.12, written by Peter Selinger 2001-2015
</metadata>
<g transform="translate(0.000000,1024.000000) scale(0.100000,-0.100000)"
fill="#5cbcb3" stroke="none">
<path d="M4885 9624 c-905 -61 -1736 -365 -2440 -894 -320 -240 -650 -570
-886 -882 -496 -659 -788 -1399 -886 -2243 -24 -210 -24 -718 0 -933 146
-1301 811 -2438 1865 -3191 1007 -719 2268 -987 3492 -741 1079 217 2031 818
2702 1707 751 994 1050 2274 822 3513 -220 1193 -915 2242 -1941 2926 -582
389 -1281 640 -2004 719 -138 15 -599 27 -724 19z m1183 -1345 c847 -94 1538
-728 1720 -1579 24 -115 26 -144 27 -360 0 -272 -15 -371 -88 -589 l-42 -124
110 -111 c281 -282 447 -662 486 -1108 27 -320 -62 -654 -249 -934 -235 -350
-583 -580 -1020 -677 -96 -21 -115 -21 -1392 -24 l-1296 -4 -384 -384 c-212
-212 -388 -385 -392 -385 -5 0 -8 175 -8 389 0 363 -1 390 -17 395 -10 2 -43
8 -73 11 -30 4 -100 17 -155 30 -576 135 -1031 548 -1215 1104 -134 403 -118
797 51 1214 90 225 210 409 378 580 73 75 208 191 249 213 2 1 -14 28 -34 60
-117 183 -182 466 -156 683 19 165 84 336 183 484 55 80 216 242 298 297 266
179 562 229 890 150 90 -22 234 -85 287 -125 18 -14 36 -25 41 -25 4 1 28 28
53 62 118 160 352 364 557 485 353 208 816 314 1191 272z"/>
<path d="M3410 6245 l0 -225 115 0 115 0 0 -865 0 -865 -115 0 -115 0 0 -215
0 -215 530 0 530 0 0 215 0 215 -130 0 -130 0 0 862 c0 474 3 858 6 855 4 -3
145 -489 313 -1079 l307 -1073 345 -3 345 -2 304 1067 c166 588 307 1075 311
1083 5 8 9 -373 9 -847 l0 -863 -130 0 -130 0 0 -215 0 -215 585 0 585 0 0
215 0 215 -115 0 -115 0 0 865 0 865 115 0 115 0 0 225 0 225 -682 -2 -682 -3
-227 -908 c-125 -500 -229 -911 -232 -914 -4 -3 -9 8 -13 23 -4 16 -107 427
-229 914 l-221 885 -682 3 -682 2 0 -225z"/>
</g>
</svg>
